# xmcd CD database file
#
# Track frame offsets:
#	150
#	19445
#	42353
#	59788
#	81138
#	98143
#	120366
#	139388
#	159582
#	177410
#	202705
#	253035
#
# Disc length: 3570 seconds
#
# Revision: 0
# Processed by: cddbd v1.5.1PL0 Copyright (c) Steve Scherf et al.
# Submitted via: CDex 1.51
#
DISCID=a60df00c
DTITLE=Tuck ANDRESS - Reckless Precision
DYEAR=1990
DGENRE=Blues
TTITLE0=I wish
TTITLE1=Europa
TTITLE2=Man in the Mirror
TTITLE3=(Somewhere) Over the Rainbow/If I Only Had a Brain
TTITLE4=Louie Louie
TTITLE5=Body and Soul
TTITLE6=Sweet P
TTITLE7=Stella by Starlight
TTITLE8=Manonash
TTITLE9=Manha de Carnaval
TTITLE10=Grooves of Joy
TTITLE11=Begin the Beguine
EXTD=YEAR: 1990
EXTT0=
EXTT1=
EXTT2=
EXTT3=
EXTT4=
EXTT5=
EXTT6=
EXTT7=
EXTT8=
EXTT9=
EXTT10=
EXTT11=
PLAYORDER=
